<svg width="120" height="120" viewBox="0 0 120 120" fill="none" xmlns="http://www.w3.org/2000/svg">
<rect width="120" height="120" rx="8" fill="black"/>
<path d="M82.1667 105.722C82.2286 103.116 102.919 92.3879 102.917 90.2222C102.915 88.0566 103.41 84.6182 102.917 80.7222C102.423 76.8262 102.938 72.5255 102.486 68.5463C102.034 64.5671 101.974 60.8851 102.037 58.3601C102.1 55.835 102.28 54.5071 102.463 52.1018C102.646 49.6965 102.866 46.3173 102.917 43.4758C103.007 38.4018 102.976 34.8316 102.489 32.7746C102.034 30.8568 102.496 29.317 100.604 26.5923C100.27 26.1121 100.09 26.2932 99.8141 26.4459C99.5381 26.5987 99.1645 26.6961 98.8731 26.873C97.7162 27.5754 96.4695 28.2506 95.1957 29.1621C92.9758 30.7507 91.4472 32.1456 89.6099 33.3993C87.503 34.8369 84.7055 36.9162 82.1786 37.0236C77.8982 37.2056 74.4411 37.2757 73.3354 37.0821C72.6403 36.9605 72.1558 36.8108 68.942 36.3743C65.9724 35.971 60.4412 35.2466 53.8971 34.0138C47.3531 32.781 40.0183 31.0909 34.4926 30.0904C28.9669 29.0899 25.3597 28.7881 23.4941 28.6372C21.6285 28.4863 17.7869 27.7222 17.6667 27.7222" stroke="white" stroke-width="8" stroke-linecap="round"/>
<path d="M82.1667 105.722C80.7561 105.17 25.5346 97.9958 23.761 97.5056C21.9934 97.017 19.3913 96.6532 18.2636 96.2563C17.8661 96.1164 17.9885 95.1917 17.5658 92.2277C17.2045 89.6939 16.7824 85.0384 16.5346 82.0707C16.1917 77.963 16.2267 76.4124 16.1056 72.7853C15.9966 69.5216 15.9844 63.3636 16.0136 59.709C16.0666 53.0621 16.4071 50.3806 16.6203 49.1899C16.7116 48.6795 16.7114 48.1217 16.8025 45.4311C16.8833 43.0434 16.8334 38.5756 16.8034 36.1539C16.6512 32.0347 16.7114 29.3423 16.8025 28.7954C16.8334 28.49 16.8334 28.1278 16.8334 27.7547" stroke="white" stroke-width="8" stroke-linecap="round"/>
<path d="M17.5623 26.4742C18.4678 25.503 35.411 15.8051 36.3538 15.3186C37.9247 14.651 40.4484 15.1924 41.9095 15.4987C43.065 15.741 96.9165 25.796 100.167 26.2222" stroke="white" stroke-width="8" stroke-linecap="round"/>
<path d="M80.7802 40.0096C80.8403 41.2223 81.3231 44.3208 82.05 48.5121C83.0012 53.997 83.1486 57.9878 83.1185 59.2974C83.1008 60.069 82.7259 62.6666 82.3615 68.0744C82.1561 71.1236 82.2376 74.81 82.2076 76.9482C82.1561 80.6129 81.9953 82.0149 81.9944 84.5847C81.9936 86.8536 81.8414 102.714 81.9944 105.222" stroke="white" stroke-width="8" stroke-linecap="round"/>
<path d="M16.8336 63.2392C17.074 63.2392 18.8813 63.2995 23.3558 63.6928C26.1558 63.9389 29.9946 64.6293 32.7283 65.1213C36.9818 65.8869 38.7541 66.3487 40.0804 66.4996C45.5707 67.1242 47.8524 67.6254 49.3791 68.0241C50.2224 68.2444 51.8623 68.4814 53.8936 68.6643C55.3792 68.7981 58.1677 68.8472 61.7176 69.0905C64.8769 69.307 67.4081 69.941 71.2322 70.2199C73.1319 70.3585 74.3384 70.5556 75.3714 70.7074C76.7688 70.8592 77.7416 71.1647 78.2262 71.2863C78.4704 71.3476 78.7108 71.4079 79.323 71.653" stroke="white" stroke-width="8" stroke-linecap="round"/>
<path d="M40.6996 47.326C40.7598 47.8107 41.0021 49.0271 41.5177 50.066C41.6341 50.3007 41.6106 50.5525 41.7909 50.7675C42.7348 51.8922 44.0956 52.3231 45.2497 52.8115C46.4054 53.3005 47.6154 53.5449 48.7121 53.7269C49.9228 53.9278 51.5032 54.0315 53.6576 53.973C54.4819 52.9395 55.2125 51.8402 55.4247 51.3537C55.5167 51.1086 55.5769 50.8671 55.821 50.2526" stroke="white" stroke-width="3" stroke-linecap="round"/>
<path d="M41.0643 82.2618C41.0643 83.2898 41.3048 85.4883 42.0626 86.3745C43.051 87.5302 44.8246 87.504 45.7974 87.5964C46.9555 87.7063 48.4063 87.8698 50.8021 87.8415C52.0537 87.2626 53.3836 86.1724 54.4521 85.0091C54.6061 84.764 54.6662 84.5226 54.7281 84.2738" stroke="white" stroke-width="3" stroke-linecap="round"/>
<path d="M31.2352 52.3173C30.9683 52.4255 30.7607 52.4666 30.6122 52.4405C30.4607 52.407 30.3433 52.3294 30.2599 52.2079C30.1839 52.0833 30.1175 51.9505 30.0608 51.8095L27.6102 45.7201C27.4788 45.3935 27.4522 45.1453 27.5305 44.9754C27.6087 44.8056 27.8109 44.6545 28.1371 44.5222L32.3405 42.8172C32.4887 42.757 32.6318 42.7162 32.7698 42.6948C32.9048 42.6659 33.0333 42.6958 33.1552 42.7845C33.2845 42.8702 33.4059 43.054 33.5194 43.3361C33.6269 43.6032 33.6638 43.8127 33.6301 43.9646C33.5963 44.1164 33.5187 44.2342 33.3972 44.318C33.2801 44.3914 33.1474 44.4582 32.9992 44.5183L29.6409 45.8805L30.2188 47.3166L32.4984 46.3919C32.6467 46.3318 32.7809 46.2903 32.9011 46.2674C33.0287 46.2416 33.1467 46.2671 33.2552 46.3439C33.3638 46.4208 33.4673 46.5816 33.5659 46.8265C33.6615 47.064 33.6968 47.2483 33.6719 47.3792C33.644 47.5028 33.5752 47.5997 33.4656 47.6701C33.3633 47.7375 33.2344 47.8027 33.0787 47.8659L30.8102 48.7861L31.7555 51.135C31.8122 51.276 31.8526 51.4193 31.8767 51.5649C31.8979 51.7031 31.8655 51.8371 31.7798 51.9669C31.6985 52.0862 31.5169 52.203 31.2352 52.3173Z" fill="white"/>
<path d="M29.3692 84.8154C29.1201 84.671 28.9621 84.5285 28.8952 84.388C28.8283 84.2476 28.8169 84.1069 28.861 83.966C28.9121 83.8291 28.9755 83.6948 29.0512 83.5631L32.3235 77.8728C32.3992 77.7411 32.4814 77.6222 32.57 77.5164C32.6654 77.4145 32.7905 77.3576 32.9451 77.3455C33.0997 77.3334 33.3051 77.4016 33.5611 77.55L35.7206 78.8017C36.0044 78.9662 36.2651 79.1867 36.5029 79.4633C36.7407 79.7398 36.9224 80.0578 37.0479 80.4172C37.1735 80.7766 37.2207 81.1599 37.1895 81.5672C37.1583 81.9745 37.0171 82.3966 36.7658 82.8335C36.5983 83.1248 36.3918 83.3796 36.1463 83.5979C35.9077 83.8202 35.6361 83.9956 35.3315 84.1242C35.0268 84.2528 34.6986 84.326 34.3468 84.344C33.999 84.3551 33.639 84.299 33.2669 84.1758L31.4189 83.1046L30.6233 84.4882C30.5475 84.6199 30.4599 84.7402 30.3604 84.849C30.265 84.9508 30.1399 85.0078 29.9853 85.0199C29.8307 85.032 29.6253 84.9638 29.3692 84.8154ZM33.8701 87.1469C33.5063 87.1857 33.2603 87.1402 33.1319 87.0103C33.0036 86.8804 32.9222 86.6529 32.8876 86.3278L32.5679 82.6472L34.4748 83.4474L34.7074 86.1481C34.7294 86.3828 34.7203 86.5671 34.6802 86.701C34.647 86.839 34.5659 86.9399 34.4368 87.0038C34.3147 87.0717 34.1258 87.1194 33.8701 87.1469ZM32.3162 81.5442L33.7593 82.3807C33.8562 82.4369 33.9666 82.4777 34.0903 82.5032C34.2181 82.5218 34.3454 82.517 34.4723 82.4889C34.5993 82.4607 34.7263 82.4003 34.8535 82.3075C34.9806 82.2148 35.094 82.0818 35.1937 81.9084C35.3094 81.7073 35.3676 81.5098 35.3683 81.316C35.3759 81.1263 35.329 80.9511 35.2275 80.7906C35.13 80.6231 34.9843 80.4832 34.7905 80.3709L33.4409 79.5885L32.3162 81.5442Z" fill="white"/>
<path d="M62.8244 94.0976C62.5636 94.2197 62.3567 94.268 62.2037 94.2425C62.058 94.2135 61.942 94.1442 61.8557 94.0344C61.766 93.9174 61.6875 93.7863 61.6201 93.6412L58.8551 87.688C58.7911 87.5501 58.7466 87.4164 58.7217 87.2867C58.6933 87.1498 58.7186 87.0143 58.7975 86.8802C58.8763 86.7461 59.0498 86.6163 59.3179 86.4908C59.499 86.406 59.6417 86.3525 59.746 86.3301C59.8503 86.3078 59.9343 86.3082 59.998 86.3314C60.0583 86.3473 60.1256 86.3688 60.1999 86.3959L64.1819 88.5596L64.0189 88.6359L64.9384 84.1775C64.9626 84.0778 64.9953 83.9963 65.0364 83.9329C65.0776 83.8694 65.1382 83.8101 65.2184 83.7549C65.3059 83.6963 65.4329 83.628 65.5996 83.55C65.8604 83.4279 66.0673 83.3796 66.2203 83.4051C66.3733 83.4307 66.4946 83.5019 66.5842 83.619C66.6705 83.7288 66.7457 83.8526 66.8097 83.9904L69.5747 89.9436C69.6387 90.0815 69.6849 90.2189 69.7132 90.3558C69.7415 90.4927 69.7162 90.6282 69.6374 90.7623C69.5585 90.8964 69.3851 91.0262 69.117 91.1517C68.8562 91.2738 68.6493 91.3221 68.4963 91.2965C68.3433 91.271 68.2219 91.1997 68.1323 91.0827C68.0427 90.9656 67.9658 90.8382 67.9018 90.7003L66.0972 86.815L65.5445 89.8695C65.5323 89.9193 65.5161 89.9888 65.4957 90.0778C65.4719 90.1596 65.4231 90.2443 65.3491 90.3319C65.2824 90.4162 65.1729 90.4939 65.0208 90.5651C64.8614 90.6398 64.7245 90.6773 64.6101 90.6779C64.5029 90.6751 64.4105 90.6565 64.3328 90.6222C64.2551 90.5879 64.1881 90.5575 64.1316 90.5309L61.4616 88.9984L63.2713 92.8947C63.3353 93.0325 63.3815 93.1699 63.4098 93.3068C63.4381 93.4437 63.4128 93.5792 63.334 93.7133C63.2624 93.844 63.0925 93.9721 62.8244 94.0976Z" fill="white"/>
<path d="M66.2877 55.7743C65.7401 55.5957 65.2561 55.3242 64.8359 54.9599C64.4257 54.5905 64.0972 54.1636 63.8504 53.6791C63.6136 53.1896 63.4676 52.6665 63.4123 52.1099C63.3646 51.5558 63.4319 50.9971 63.6141 50.4339C63.7989 49.863 64.0702 49.3625 64.428 48.9323C64.796 48.4969 65.2164 48.146 65.6895 47.8796C66.1701 47.6156 66.6807 47.454 67.2212 47.3947C67.7617 47.3354 68.3019 47.3938 68.8419 47.57C69.3895 47.7486 69.8684 48.0226 70.2786 48.3921C70.6989 48.7564 71.0274 49.1833 71.2641 49.6728C71.5009 50.1624 71.6419 50.6881 71.6871 51.2498C71.74 51.814 71.6728 52.3853 71.4856 52.9638C71.3058 53.5194 71.0331 54.0111 70.6677 54.4388C70.3123 54.8615 69.8943 55.2047 69.4136 55.4687C68.9355 55.7251 68.4261 55.8829 67.8856 55.9422C67.3527 56.0039 66.82 55.948 66.2877 55.7743ZM66.7922 54.0203C67.0965 54.1196 67.4014 54.1517 67.707 54.1168C68.0126 54.0818 68.2975 53.9939 68.5618 53.8529C68.8361 53.7067 69.0721 53.5102 69.2697 53.2633C69.4774 53.0113 69.6354 52.7179 69.7438 52.383C69.8473 52.0633 69.8875 51.744 69.8646 51.4252C69.8441 51.0988 69.7657 50.7955 69.6293 50.5154C69.503 50.2301 69.3264 49.9832 69.0996 49.7746C68.8805 49.5685 68.6188 49.4158 68.3145 49.3165C68.0179 49.2198 67.7168 49.1889 67.4112 49.2238C67.1132 49.2612 66.8258 49.3568 66.549 49.5106C66.2823 49.6592 66.0413 49.8582 65.826 50.1078C65.6208 50.3522 65.4652 50.638 65.3593 50.9653C65.2558 51.285 65.2144 51.608 65.2348 51.9345C65.2654 52.2558 65.345 52.5553 65.4738 52.8329C65.6102 53.113 65.788 53.3561 66.0071 53.5623C66.2263 53.7684 66.488 53.9211 66.7922 54.0203Z" fill="white"/>
</svg>
