<svg width="96" height="99" viewBox="0 0 96 99" fill="none" xmlns="http://www.w3.org/2000/svg">
<path d="M70.1667 94.7228C70.2286 92.1163 90.9185 81.3884 90.9167 79.2228C90.9149 77.0571 91.4104 73.6188 90.9167 69.7228C90.423 65.8268 90.9377 61.5261 90.4859 57.5469C90.034 53.5677 89.9739 49.8857 90.0368 47.3606C90.0996 44.8356 90.28 43.5076 90.4631 41.1024C90.6462 38.6971 90.8662 35.3179 90.9167 32.4763C91.0069 27.4024 90.9761 23.8322 90.4886 21.7752C90.034 19.8574 90.4959 18.3175 88.6039 15.5928C88.2705 15.1127 88.0901 15.2938 87.8141 15.4465C87.5381 15.5992 87.1645 15.6967 86.8731 15.8736C85.7162 16.576 84.4695 17.2512 83.1957 18.1627C80.9758 19.7513 79.4472 21.1462 77.6099 22.3998C75.503 23.8375 72.7055 25.9168 70.1786 26.0242C65.8982 26.2062 62.4411 26.2762 61.3354 26.0827C60.6403 25.9611 60.1558 25.8114 56.942 25.3749C53.9724 24.9715 48.4412 24.2472 41.8971 23.0144C35.3531 21.7816 28.0183 20.0915 22.4926 19.091C16.9669 18.0905 13.3597 17.7887 11.4941 17.6378C9.62854 17.4869 5.78693 16.7228 5.66669 16.7228" stroke="white" stroke-width="8" stroke-linecap="round"/>
<path d="M70.1667 94.7228C68.7561 94.171 13.5346 86.9963 11.761 86.5061C9.99339 86.0176 7.3913 85.6538 6.26357 85.2569C5.86608 85.117 5.98847 84.1923 5.56581 81.2283C5.2045 78.6945 4.78241 74.039 4.53464 71.0713C4.19169 66.9636 4.22674 65.413 4.10559 61.7859C3.99658 58.5222 3.98444 52.3642 4.01359 48.7096C4.06661 42.0627 4.40711 39.3812 4.62027 38.1905C4.71164 37.6801 4.71136 37.1223 4.80245 34.4317C4.88329 32.044 4.83342 27.5762 4.80336 25.1545C4.65124 21.0353 4.71136 18.3429 4.80245 17.796C4.83342 17.4905 4.83342 17.1284 4.83342 16.7552" stroke="white" stroke-width="8" stroke-linecap="round"/>
<path d="M5.56232 15.4748C6.46777 14.5036 23.411 4.80569 24.3538 4.31915C25.9247 3.6516 28.4484 4.19294 29.9095 4.49931C31.065 4.74159 84.9165 14.7966 88.1667 15.2228" stroke="white" stroke-width="8" stroke-linecap="round"/>
<path d="M68.7802 29.0101C68.8403 30.2228 69.3231 33.3213 70.05 37.5127C71.0012 42.9975 71.1486 46.9884 71.1185 48.298C71.1008 49.0695 70.7259 51.6672 70.3615 57.0749C70.1561 60.1242 70.2376 63.8106 70.2076 65.9488C70.1561 69.6135 69.9953 71.0154 69.9944 73.5853C69.9936 75.8542 69.8414 91.7142 69.9944 94.2228" stroke="white" stroke-width="8" stroke-linecap="round"/>
<path d="M4.83356 52.2398C5.07404 52.2398 6.88131 52.3001 11.3558 52.6934C14.1558 52.9395 17.9946 53.6299 20.7283 54.1219C24.9818 54.8875 26.7541 55.3492 28.0804 55.5001C33.5707 56.1248 35.8524 56.6259 37.3791 57.0247C38.2224 57.2449 39.8623 57.482 41.8936 57.6649C43.3792 57.7986 46.1677 57.8478 49.7176 58.0911C52.8769 58.3076 55.4081 58.9416 59.2322 59.2205C61.1319 59.3591 62.3384 59.5562 63.3714 59.708C64.7688 59.8598 65.7416 60.1653 66.2262 60.2869C66.4704 60.3482 66.7108 60.4085 67.323 60.6536" stroke="white" stroke-width="8" stroke-linecap="round"/>
<path d="M28.6996 36.3266C28.7598 36.8113 29.0021 38.0276 29.5177 39.0666C29.6341 39.3013 29.6106 39.5531 29.7909 39.768C30.7348 40.8927 32.0956 41.3237 33.2497 41.8121C34.4054 42.3011 35.6154 42.5455 36.7121 42.7275C37.9228 42.9284 39.5032 43.0321 41.6576 42.9735C42.4819 41.9401 43.2125 40.8408 43.4247 40.3543C43.5167 40.1092 43.5769 39.8677 43.821 39.2531" stroke="white" stroke-width="3" stroke-linecap="round"/>
<path d="M29.0643 71.2624C29.0643 72.2903 29.3048 74.4889 30.0626 75.3751C31.051 76.5307 32.8246 76.5046 33.7974 76.597C34.9555 76.7069 36.4063 76.8704 38.8021 76.8421C40.0537 76.2631 41.3836 75.173 42.4521 74.0097C42.6061 73.7646 42.6662 73.5232 42.7281 73.2744" stroke="white" stroke-width="3" stroke-linecap="round"/>
<path d="M19.2352 41.3178C18.9683 41.4261 18.7607 41.4672 18.6122 41.4411C18.4607 41.4075 18.3433 41.33 18.2599 41.2084C18.1839 41.0839 18.1175 40.9511 18.0608 40.8101L15.6102 34.7207C15.4788 34.3941 15.4522 34.1459 15.5305 33.976C15.6087 33.8062 15.8109 33.6551 16.1371 33.5228L20.3405 31.8177C20.4887 31.7576 20.6318 31.7168 20.7698 31.6954C20.9048 31.6665 21.0333 31.6964 21.1552 31.7851C21.2845 31.8708 21.4059 32.0546 21.5194 32.3366C21.6269 32.6038 21.6638 32.8133 21.6301 32.9651C21.5963 33.117 21.5187 33.2348 21.3972 33.3186C21.2801 33.392 21.1474 33.4587 20.9992 33.5189L17.6409 34.8811L18.2188 36.3172L20.4984 35.3925C20.6467 35.3324 20.7809 35.2909 20.9011 35.268C21.0287 35.2422 21.1467 35.2677 21.2552 35.3445C21.3638 35.4213 21.4673 35.5822 21.5659 35.8271C21.6615 36.0646 21.6968 36.2488 21.6719 36.3798C21.644 36.5034 21.5752 36.6003 21.4656 36.6707C21.3633 36.7381 21.2344 36.8033 21.0787 36.8665L18.8102 37.7867L19.7555 40.1356C19.8122 40.2766 19.8526 40.4199 19.8767 40.5655C19.8979 40.7037 19.8655 40.8377 19.7798 40.9674C19.6985 41.0868 19.5169 41.2036 19.2352 41.3178Z" fill="white"/>
<path d="M17.3692 73.816C17.1201 73.6715 16.9621 73.5291 16.8952 73.3886C16.8283 73.2481 16.8169 73.1075 16.861 72.9666C16.9121 72.8297 16.9755 72.6954 17.0512 72.5636L20.3235 66.8734C20.3992 66.7416 20.4814 66.6228 20.57 66.517C20.6654 66.4151 20.7905 66.3581 20.9451 66.3461C21.0997 66.334 21.3051 66.4021 21.5611 66.5506L23.7206 67.8023C24.0044 67.9668 24.2651 68.1873 24.5029 68.4638C24.7407 68.7404 24.9224 69.0583 25.0479 69.4178C25.1735 69.7772 25.2207 70.1605 25.1895 70.5678C25.1583 70.9751 25.0171 71.3972 24.7658 71.8341C24.5983 72.1254 24.3918 72.3801 24.1463 72.5985C23.9077 72.8208 23.6361 72.9962 23.3315 73.1248C23.0268 73.2533 22.6986 73.3266 22.3468 73.3446C21.999 73.3557 21.639 73.2996 21.2669 73.1764L19.4189 72.1052L18.6233 73.4888C18.5475 73.6205 18.4599 73.7408 18.3604 73.8496C18.265 73.9514 18.1399 74.0084 17.9853 74.0205C17.8307 74.0326 17.6253 73.9644 17.3692 73.816ZM21.8701 76.1475C21.5063 76.1863 21.2603 76.1407 21.1319 76.0109C21.0036 75.881 20.9222 75.6535 20.8876 75.3283L20.5679 71.6477L22.4748 72.4479L22.7074 75.1487C22.7294 75.3834 22.7203 75.5677 22.6802 75.7016C22.647 75.8396 22.5659 75.9405 22.4368 76.0044C22.3147 76.0723 22.1258 76.12 21.8701 76.1475ZM20.3162 70.5448L21.7593 71.3813C21.8562 71.4375 21.9666 71.4783 22.0903 71.5038C22.2181 71.5224 22.3454 71.5176 22.4723 71.4894C22.5993 71.4613 22.7263 71.4009 22.8535 71.3081C22.9806 71.2154 23.094 71.0823 23.1937 70.909C23.3094 70.7078 23.3676 70.5104 23.3683 70.3166C23.3759 70.1268 23.329 69.9517 23.2275 69.7912C23.13 69.6237 22.9843 69.4838 22.7905 69.3715L21.4409 68.5891L20.3162 70.5448Z" fill="white"/>
<path d="M50.8244 83.0982C50.5636 83.2203 50.3567 83.2686 50.2037 83.243C50.058 83.2141 49.942 83.1448 49.8557 83.035C49.766 82.9179 49.6875 82.7869 49.6201 82.6418L46.8551 76.6886C46.7911 76.5507 46.7466 76.4169 46.7217 76.2873C46.6933 76.1504 46.7186 76.0149 46.7975 75.8808C46.8763 75.7467 47.0498 75.6169 47.3179 75.4914C47.499 75.4066 47.6417 75.353 47.746 75.3307C47.8503 75.3084 47.9343 75.3088 47.998 75.332C48.0583 75.3479 48.1256 75.3694 48.1999 75.3964L52.1819 77.5602L52.0189 77.6365L52.9384 73.1781C52.9626 73.0784 52.9953 72.9968 53.0364 72.9334C53.0776 72.87 53.1382 72.8107 53.2184 72.7555C53.3059 72.6969 53.4329 72.6286 53.5996 72.5506C53.8604 72.4284 54.0673 72.3802 54.2203 72.4057C54.3733 72.4312 54.4946 72.5025 54.5842 72.6196C54.6705 72.7293 54.7457 72.8531 54.8097 72.991L57.5747 78.9442C57.6387 79.0821 57.6849 79.2195 57.7132 79.3564C57.7415 79.4933 57.7162 79.6288 57.6374 79.7629C57.5585 79.8969 57.3851 80.0267 57.117 80.1522C56.8562 80.2744 56.6493 80.3226 56.4963 80.2971C56.3433 80.2716 56.2219 80.2003 56.1323 80.0832C56.0427 79.9662 55.9658 79.8388 55.9018 79.7009L54.0972 75.8155L53.5445 78.87C53.5323 78.9199 53.5161 78.9893 53.4957 79.0784C53.4719 79.1602 53.4231 79.2449 53.3491 79.3325C53.2824 79.4167 53.1729 79.4945 53.0208 79.5657C52.8614 79.6403 52.7245 79.6779 52.6101 79.6785C52.5029 79.6757 52.4105 79.6571 52.3328 79.6228C52.2551 79.5885 52.1881 79.5581 52.1316 79.5315L49.4616 77.999L51.2713 81.8952C51.3353 82.0331 51.3815 82.1705 51.4098 82.3074C51.4381 82.4443 51.4128 82.5798 51.334 82.7139C51.2624 82.8446 51.0925 82.9727 50.8244 83.0982Z" fill="white"/>
<path d="M54.2877 44.7749C53.7401 44.5963 53.2561 44.3248 52.8359 43.9605C52.4257 43.5911 52.0972 43.1642 51.8504 42.6797C51.6136 42.1902 51.4676 41.6671 51.4123 41.1105C51.3646 40.5564 51.4319 39.9977 51.6141 39.4345C51.7989 38.8636 52.0702 38.3631 52.428 37.9328C52.796 37.4975 53.2164 37.1466 53.6895 36.8801C54.1701 36.6162 54.6807 36.4546 55.2212 36.3953C55.7617 36.336 56.3019 36.3944 56.8419 36.5706C57.3895 36.7492 57.8684 37.0232 58.2786 37.3926C58.6989 37.7569 59.0274 38.1839 59.2641 38.6734C59.5009 39.163 59.6419 39.6886 59.6871 40.2504C59.74 40.8146 59.6728 41.3859 59.4856 41.9644C59.3058 42.52 59.0331 43.0117 58.6677 43.4394C58.3123 43.862 57.8943 44.2053 57.4136 44.4693C56.9355 44.7256 56.4261 44.8835 55.8856 44.9427C55.3527 45.0045 54.82 44.9486 54.2877 44.7749ZM54.7922 43.0209C55.0965 43.1201 55.4014 43.1523 55.707 43.1174C56.0126 43.0824 56.2975 42.9944 56.5618 42.8534C56.8361 42.7073 57.0721 42.5108 57.2697 42.2639C57.4774 42.0119 57.6354 41.7184 57.7438 41.3835C57.8473 41.0639 57.8875 40.7446 57.8646 40.4258C57.8441 40.0993 57.7657 39.7961 57.6293 39.516C57.503 39.2307 57.3264 38.9838 57.0996 38.7752C56.8805 38.569 56.6188 38.4163 56.3145 38.3171C56.0179 38.2203 55.7168 38.1894 55.4112 38.2244C55.1132 38.2618 54.8258 38.3574 54.549 38.5111C54.2823 38.6597 54.0413 38.8588 53.826 39.1084C53.6208 39.3528 53.4652 39.6386 53.3593 39.9659C53.2558 40.2856 53.2144 40.6086 53.2348 40.9351C53.2654 41.2564 53.345 41.5559 53.4738 41.8335C53.6102 42.1136 53.788 42.3567 54.0071 42.5628C54.2263 42.769 54.488 42.9217 54.7922 43.0209Z" fill="white"/>
</svg>
